<?xml version="1.0" standalone="no"?>
<!DOCTYPE svg PUBLIC "-//W3C//DTD SVG 20010904//EN"
 "http://www.w3.org/TR/2001/REC-SVG-20010904/DTD/svg10.dtd">
<svg version="1.0" xmlns="http://www.w3.org/2000/svg"
 width="256.000000pt" height="256.000000pt" viewBox="0 0 256.000000 256.000000"
 preserveAspectRatio="xMidYMid meet">
<metadata>
Created by potrace 1.11, written by Peter Selinger 2001-2013
</metadata>
<g transform="translate(0.000000,256.000000) scale(0.100000,-0.100000)"
fill="#000000" stroke="none">
<path d="M2085 2444 c-164 -35 -320 -117 -670 -350 -252 -168 -348 -262 -395
-384 -7 -19 -21 -44 -31 -55 -25 -29 -92 -221 -84 -244 3 -12 39 -35 88 -59
77 -38 81 -41 57 -50 -91 -36 -867 -365 -891 -377 -23 -13 -29 -22 -29 -50 0
-31 6 -38 76 -84 42 -28 79 -51 83 -51 4 0 16 -8 27 -18 10 -10 26 -21 34 -25
19 -9 77 -47 558 -359 303 -197 322 -207 387 -202 41 2 124 39 138 62 4 6 12
12 16 12 5 0 49 27 98 59 59 39 92 56 99 50 8 -7 11 -5 10 6 0 9 13 23 29 33
17 9 32 20 33 25 2 4 8 7 14 7 5 0 25 12 44 26 19 15 34 23 34 19 0 -3 7 1 16
9 8 9 20 13 26 10 7 -5 8 -2 4 5 -5 8 0 14 13 18 12 3 21 9 21 14 0 5 6 9 14
9 7 0 19 7 26 15 10 12 16 13 27 4 11 -10 12 -9 7 5 -6 15 5 21 29 17 5 -1 6
3 2 9 -3 5 2 13 12 17 10 3 26 13 36 21 9 8 17 12 17 8 0 -4 10 2 22 14 24 22
43 27 32 8 -4 -8 -3 -10 2 -5 5 5 9 14 9 20 0 7 8 11 18 11 9 -1 14 2 12 7 -8
11 33 31 47 23 6 -4 8 -3 5 3 -9 14 19 37 34 27 8 -5 9 -3 4 6 -6 10 -4 12 8
7 9 -3 16 -2 14 2 -1 5 2 11 8 12 5 2 19 14 32 27 13 13 27 21 32 18 5 -3 11
1 15 9 3 8 12 12 21 9 10 -4 15 -2 13 7 -2 8 5 14 17 14 11 0 21 6 21 13 1 6
2 19 3 28 0 8 5 13 10 9 5 -3 3 8 -5 25 -9 16 -20 30 -25 30 -6 0 -7 5 -3 12
4 7 3 8 -4 4 -6 -3 -33 3 -59 15 -26 12 -70 31 -98 44 -27 12 -60 25 -72 29
-13 4 -23 12 -23 18 0 6 -3 9 -6 5 -10 -9 -64 14 -57 26 3 6 1 7 -5 3 -6 -4
-27 0 -46 8 -28 11 -34 19 -30 33 6 16 5 16 -8 -1 -15 -19 -15 -19 -34 0 -11
11 -27 18 -37 16 -9 -2 -17 2 -17 8 0 6 -4 8 -10 5 -5 -3 -10 -1 -10 5 0 6 -5
8 -10 5 -6 -4 -16 -3 -23 2 -7 5 -71 33 -143 62 l-131 53 -11 46 c-6 26 -14
67 -18 92 -7 50 -25 90 -48 109 -9 8 -16 26 -16 41 0 28 12 47 74 114 20 22
37 46 37 53 1 7 3 18 4 23 1 6 3 27 4 48 2 48 28 65 204 137 307 124 457 214
512 310 70 119 23 205 -114 210 -36 1 -93 -3 -126 -11z"/>
<path d="M1941 1236 c-9 -11 -9 -16 1 -22 7 -4 10 -4 6 1 -4 4 -3 14 3 22 6 7
9 13 6 13 -2 0 -10 -6 -16 -14z"/>
<path d="M2180 1240 c-8 -5 -10 -10 -5 -10 6 0 17 5 25 10 8 5 11 10 5 10 -5
0 -17 -5 -25 -10z"/>
<path d="M2133 1209 c-2 -23 3 -25 10 -4 4 8 3 16 -1 19 -4 3 -9 -4 -9 -15z"/>
<path d="M1916 1181 c-3 -5 1 -14 8 -20 10 -9 16 -9 21 -1 4 6 1 9 -7 8 -7 -2
-12 3 -10 10 2 14 -4 16 -12 3z"/>
<path d="M2173 1169 c-2 -23 3 -25 10 -4 4 8 3 16 -1 19 -4 3 -9 -4 -9 -15z"/>
<path d="M2189 1123 c-13 -16 -12 -17 4 -4 16 13 21 21 13 21 -2 0 -10 -8 -17
-17z"/>
<path d="M2030 1106 c0 -2 7 -7 16 -10 8 -3 12 -2 9 4 -6 10 -25 14 -25 6z"/>
</g>
</svg>
